<svg width="50" height="51" viewBox="0 0 50 51" fill="none" xmlns="http://www.w3.org/2000/svg">
<path d="M50 25.1121C50 11.305 38.807 0.112061 25 0.112061C11.193 0.112061 0 11.3048 0 25.1121C0 37.5902 9.14219 47.933 21.0938 49.8084V32.3386H14.7461V25.1121H21.0938V19.6043C21.0938 13.3386 24.8262 9.87769 30.5365 9.87769C33.2719 9.87769 36.1328 10.366 36.1328 10.366V16.5183H32.9805C29.8746 16.5183 28.9062 18.4455 28.9062 20.4226V25.1121H35.8398L34.7314 32.3386H28.9062V49.8084C40.8578 47.933 50 37.5904 50 25.1121Z" fill="#1877F2"/>
<path d="M34.7314 32.3386L35.8398 25.1121H28.9062V20.4226C28.9062 18.4455 29.8746 16.5183 32.9805 16.5183H36.1328V10.366C36.1328 10.366 33.2719 9.87769 30.5365 9.87769C24.8262 9.87769 21.0938 13.3386 21.0938 19.6043V25.1121H14.7461V32.3386H21.0938V49.8084C22.386 50.0109 23.692 50.1124 25 50.1121C26.308 50.1124 27.614 50.0109 28.9062 49.8084V32.3386H34.7314Z" fill="white"/>
</svg>
