<svg width="338" height="51" viewBox="0 0 338 51" fill="none" xmlns="http://www.w3.org/2000/svg">
<path d="M50 25.1121C50 11.305 38.807 0.112061 25 0.112061C11.193 0.112061 0 11.3048 0 25.1121C0 37.5902 9.14219 47.933 21.0938 49.8084V32.3386H14.7461V25.1121H21.0938V19.6043C21.0938 13.3386 24.8262 9.87769 30.5365 9.87769C33.2719 9.87769 36.1328 10.366 36.1328 10.366V16.5183H32.9805C29.8746 16.5183 28.9062 18.4455 28.9062 20.4226V25.1121H35.8398L34.7314 32.3386H28.9062V49.8084C40.8578 47.933 50 37.5904 50 25.1121Z" fill="#1877F2"/>
<path d="M34.7314 32.3386L35.8398 25.1121H28.9062V20.4226C28.9062 18.4455 29.8746 16.5183 32.9805 16.5183H36.1328V10.366C36.1328 10.366 33.2719 9.87769 30.5365 9.87769C24.8262 9.87769 21.0938 13.3386 21.0938 19.6043V25.1121H14.7461V32.3386H21.0938V49.8084C22.386 50.0109 23.692 50.1124 25 50.1121C26.308 50.1124 27.614 50.0109 28.9062 49.8084V32.3386H34.7314Z" fill="white"/>
<path d="M99.067 24.8937C99.0658 29.1275 100.172 33.2615 102.276 36.9053L98.8658 49.3549L111.606 46.0143C115.13 47.9326 119.079 48.9378 123.091 48.9381H123.101C136.346 48.9381 147.128 38.1602 147.134 24.9127C147.137 18.4934 144.639 12.457 140.101 7.91563C135.564 3.37461 129.53 0.872461 123.1 0.869531C109.854 0.869531 99.0725 11.6469 99.067 24.8937Z" fill="url(#paint0_linear_253_942)"/>
<path d="M98.209 24.8859C98.2076 29.2721 99.3535 33.5539 101.532 37.3281L98 50.224L111.197 46.7637C114.834 48.7463 118.928 49.7916 123.094 49.7932H123.105C136.825 49.7932 147.994 38.6275 148 24.9059C148.002 18.2559 145.415 12.0025 140.715 7.29844C136.014 2.59492 129.764 0.00273438 123.105 0C109.382 0 98.2145 11.1641 98.209 24.8859ZM106.068 36.6781L105.576 35.8959C103.504 32.6021 102.411 28.7959 102.412 24.8875C102.417 13.4822 111.699 4.20312 123.113 4.20312C128.64 4.20547 133.834 6.36016 137.741 10.2695C141.648 14.1793 143.798 19.3766 143.797 24.9043C143.792 36.3096 134.509 45.5898 123.105 45.5898H123.096C119.383 45.5879 115.741 44.5906 112.565 42.7061L111.809 42.2578L103.977 44.3111L106.068 36.6781Z" fill="url(#paint1_linear_253_942)"/>
<path d="M116.882 14.482C116.416 13.4463 115.926 13.4254 115.483 13.4072C115.12 13.3916 114.705 13.3928 114.291 13.3928C113.876 13.3928 113.202 13.5488 112.632 14.1709C112.062 14.7936 110.455 16.2982 110.455 19.3586C110.455 22.4191 112.684 25.3768 112.995 25.7922C113.306 26.2068 117.298 32.6881 123.621 35.1814C128.875 37.2535 129.945 36.8414 131.085 36.7375C132.226 36.634 134.765 35.2332 135.284 33.7807C135.802 32.3283 135.802 31.0834 135.647 30.8232C135.491 30.5641 135.076 30.4084 134.454 30.0975C133.832 29.7863 130.774 28.2814 130.204 28.0738C129.633 27.8664 129.219 27.7629 128.804 28.3857C128.389 29.0076 127.198 30.4084 126.835 30.8232C126.472 31.2391 126.109 31.2908 125.487 30.9797C124.865 30.6676 122.861 30.0115 120.485 27.8926C118.635 26.2437 117.387 24.2076 117.024 23.5848C116.661 22.9629 116.985 22.6258 117.297 22.3158C117.577 22.0371 117.919 21.5895 118.231 21.2264C118.541 20.8631 118.644 20.6039 118.852 20.1891C119.059 19.7738 118.955 19.4105 118.8 19.0994C118.644 18.7883 117.436 15.7119 116.882 14.482Z" fill="white"/>
<path d="M229.688 3.11206H206.312C200.617 3.11206 196 7.72912 196 13.4246V36.7996C196 42.495 200.617 47.1121 206.312 47.1121H229.688C235.383 47.1121 240 42.495 240 36.7996V13.4246C240 7.72912 235.383 3.11206 229.688 3.11206Z" fill="url(#paint2_radial_253_942)"/>
<path d="M229.688 3.11206H206.312C200.617 3.11206 196 7.72912 196 13.4246V36.7996C196 42.495 200.617 47.1121 206.312 47.1121H229.688C235.383 47.1121 240 42.495 240 36.7996V13.4246C240 7.72912 235.383 3.11206 229.688 3.11206Z" fill="url(#paint3_radial_253_942)"/>
<path d="M218.002 7.92456C213.334 7.92456 212.748 7.94501 210.915 8.02837C209.085 8.11225 207.836 8.40186 206.743 8.8269C205.612 9.26587 204.654 9.85317 203.698 10.8088C202.742 11.7642 202.155 12.7231 201.714 13.8532C201.288 14.9463 200.998 16.1959 200.916 18.0248C200.834 19.8582 200.812 20.4443 200.812 25.1122C200.812 29.7802 200.833 30.3642 200.916 32.1974C201.001 34.0272 201.29 35.2762 201.715 36.369C202.154 37.4996 202.741 38.4585 203.697 39.4138C204.652 40.3699 205.611 40.9586 206.741 41.3976C207.834 41.8226 209.084 42.1122 210.913 42.1961C212.746 42.2794 213.332 42.2999 217.999 42.2999C222.668 42.2999 223.252 42.2794 225.085 42.1961C226.915 42.1122 228.165 41.8226 229.259 41.3976C230.389 40.9586 231.346 40.3699 232.301 39.4138C233.258 38.4585 233.845 37.4996 234.285 36.3695C234.708 35.2762 234.998 34.0269 235.084 32.1978C235.166 30.3646 235.188 29.7802 235.188 25.1122C235.188 20.4443 235.166 19.8585 235.084 18.0251C234.998 16.1954 234.708 14.9465 234.285 13.8537C233.845 12.7231 233.258 11.7642 232.301 10.8088C231.345 9.85283 230.389 9.26553 229.258 8.82708C228.162 8.40186 226.912 8.11208 225.083 8.02837C223.249 7.94501 222.666 7.92456 217.996 7.92456H218.002ZM216.46 11.0219C216.917 11.0212 217.428 11.0219 218.002 11.0219C222.591 11.0219 223.135 11.0384 224.947 11.1207C226.623 11.1974 227.532 11.4774 228.138 11.7127C228.94 12.0241 229.512 12.3966 230.113 12.9983C230.715 13.5999 231.087 14.1727 231.399 14.9749C231.635 15.5799 231.915 16.4894 231.991 18.1652C232.074 19.9771 232.092 20.5213 232.092 25.1083C232.092 29.6953 232.074 30.2396 231.991 32.0513C231.915 33.7271 231.635 34.6367 231.399 35.2419C231.088 36.044 230.715 36.6151 230.113 37.2164C229.512 37.8179 228.941 38.1902 228.138 38.5018C227.533 38.7381 226.623 39.0174 224.947 39.0941C223.135 39.1764 222.591 39.1943 218.002 39.1943C213.412 39.1943 212.868 39.1764 211.056 39.0941C209.381 39.0167 208.471 38.7368 207.865 38.5015C207.063 38.1899 206.49 37.8176 205.888 37.216C205.287 36.6145 204.914 36.043 204.602 35.2405C204.367 34.6353 204.086 33.7257 204.01 32.05C203.928 30.2381 203.911 29.6939 203.911 25.104C203.911 20.5142 203.928 19.9728 204.01 18.1609C204.087 16.4851 204.367 15.5756 204.602 14.9697C204.914 14.1676 205.287 13.5947 205.888 12.9932C206.49 12.3916 207.063 12.0191 207.865 11.707C208.471 11.4707 209.381 11.1914 211.056 11.1144C212.642 11.0427 213.256 11.0212 216.46 11.0176V11.0219ZM227.176 13.8757C226.038 13.8757 225.114 14.7987 225.114 15.9375C225.114 17.0762 226.038 18 227.176 18C228.315 18 229.239 17.0762 229.239 15.9375C229.239 14.7989 228.315 13.875 227.176 13.875V13.8757ZM218.002 16.2856C213.127 16.2856 209.175 20.2377 209.175 25.1122C209.175 29.9868 213.127 33.937 218.002 33.937C222.876 33.937 226.827 29.9868 226.827 25.1122C226.827 20.2379 222.876 16.2856 218.002 16.2856ZM218.002 19.383C221.166 19.383 223.731 21.9478 223.731 25.1122C223.731 28.2763 221.166 30.8415 218.002 30.8415C214.837 30.8415 212.272 28.2763 212.272 25.1122C212.272 21.9478 214.837 19.383 218.002 19.383Z" fill="white"/>
<g clip-path="url(#clip0_253_942)">
<path d="M299.364 43.7741V24.4558L293.372 18.9747L288 15.9331V40.3649C288 42.2513 289.528 43.7741 291.409 43.7741H299.364Z" fill="#4285F4"/>
<path d="M326.636 43.7742H334.591C336.477 43.7742 338 42.2457 338 40.365V15.9333L331.915 19.4171L326.636 24.4558V43.7742Z" fill="#34A853"/>
<path d="M299.364 24.4558L298.548 16.9075L299.364 9.68311L313 19.9104L326.636 9.68311L327.548 16.5175L326.636 24.4558L313 34.6831L299.364 24.4558Z" fill="#EA4335"/>
<path d="M326.636 9.68309V24.4557L338 15.9331V11.3876C338 7.17177 333.188 4.76845 329.818 7.29677L326.636 9.68309Z" fill="#FBBC04"/>
<path d="M288 15.9332L293.226 19.8531L299.364 24.4558V9.68318L296.182 7.29686C292.807 4.76834 288 7.17186 288 11.3875V15.933V15.9332Z" fill="#C5221F"/>
</g>
<defs>
<linearGradient id="paint0_linear_253_942" x1="2598" y1="5022.4" x2="2598" y2="0" gradientUnits="userSpaceOnUse">
<stop stop-color="#1FAF38"/>
<stop offset="1" stop-color="#60D669"/>
</linearGradient>
<linearGradient id="paint1_linear_253_942" x1="2598" y1="5022.4" x2="2598" y2="0" gradientUnits="userSpaceOnUse">
<stop stop-color="#F9F9F9"/>
<stop offset="1" stop-color="white"/>
</linearGradient>
<radialGradient id="paint2_radial_253_942" cx="0" cy="0" r="1" gradientUnits="userSpaceOnUse" gradientTransform="translate(207.687 50.5009) rotate(-90) scale(43.6073 40.5582)">
<stop stop-color="#FFDD55"/>
<stop offset="0.1" stop-color="#FFDD55"/>
<stop offset="0.5" stop-color="#FF543E"/>
<stop offset="1" stop-color="#C837AB"/>
</radialGradient>
<radialGradient id="paint3_radial_253_942" cx="0" cy="0" r="1" gradientUnits="userSpaceOnUse" gradientTransform="translate(188.63 6.28161) rotate(78.681) scale(19.4927 80.3495)">
<stop stop-color="#3771C8"/>
<stop offset="0.128" stop-color="#3771C8"/>
<stop offset="1" stop-color="#6600FF" stop-opacity="0"/>
</radialGradient>
<clipPath id="clip0_253_942">
<rect width="50" height="37.6953" fill="white" transform="translate(288 6.2644)"/>
</clipPath>
</defs>
</svg>
