<svg width="50" height="38" viewBox="0 0 50 38" fill="none" xmlns="http://www.w3.org/2000/svg">
<g clip-path="url(#clip0_253_926)">
<path d="M11.3637 37.7741V18.4558L5.37246 12.9747L0 9.93311V34.3649C0 36.2513 1.52832 37.7741 3.40918 37.7741H11.3637Z" fill="#4285F4"/>
<path d="M38.6364 37.7742H46.5908C48.4774 37.7742 50 36.2457 50 34.365V9.93335L43.9149 13.4171L38.6364 18.4558V37.7742Z" fill="#34A853"/>
<path d="M11.3637 18.4558L10.5485 10.9075L11.3637 3.68311L25 13.9104L38.6364 3.68311L39.5483 10.5175L38.6364 18.4558L25 28.6831L11.3637 18.4558Z" fill="#EA4335"/>
<path d="M38.6364 3.68309V18.4557L50 9.93309V5.38759C50 1.17177 45.1875 -1.23155 41.8184 1.29677L38.6364 3.68309Z" fill="#FBBC04"/>
<path d="M0 9.93318L5.22637 13.8531L11.3637 18.4558V3.68318L8.18164 1.29686C4.80664 -1.23166 0 1.17186 0 5.38748V9.93299V9.93318Z" fill="#C5221F"/>
</g>
<defs>
<clipPath id="clip0_253_926">
<rect width="50" height="37.6953" fill="white" transform="translate(0 0.264404)"/>
</clipPath>
</defs>
</svg>
