<svg width="44" height="45" viewBox="0 0 44 45" fill="none" xmlns="http://www.w3.org/2000/svg">
<path d="M33.6875 0.112061H10.3125C4.61706 0.112061 0 4.72912 0 10.4246V33.7996C0 39.495 4.61706 44.1121 10.3125 44.1121H33.6875C39.3829 44.1121 44 39.495 44 33.7996V10.4246C44 4.72912 39.3829 0.112061 33.6875 0.112061Z" fill="url(#paint0_radial_253_938)"/>
<path d="M33.6875 0.112061H10.3125C4.61706 0.112061 0 4.72912 0 10.4246V33.7996C0 39.495 4.61706 44.1121 10.3125 44.1121H33.6875C39.3829 44.1121 44 39.495 44 33.7996V10.4246C44 4.72912 39.3829 0.112061 33.6875 0.112061Z" fill="url(#paint1_radial_253_938)"/>
<path d="M22.0015 4.92456C17.3338 4.92456 16.7478 4.94501 14.9146 5.02837C13.0848 5.11225 11.8358 5.40186 10.743 5.8269C9.61245 6.26587 8.65356 6.85317 7.69828 7.80879C6.74214 8.76425 6.15484 9.72314 5.7145 10.8532C5.28825 11.9463 4.9983 13.1959 4.91597 15.0248C4.83398 16.8582 4.8125 17.4443 4.8125 22.1122C4.8125 26.7802 4.83312 27.3642 4.91631 29.1974C5.00053 31.0272 5.29014 32.2762 5.71484 33.369C6.15416 34.4996 6.74145 35.4585 7.69708 36.4138C8.65219 37.3699 9.61108 37.9586 10.7408 38.3976C11.8345 38.8226 13.0836 39.1122 14.9131 39.1961C16.7465 39.2794 17.3319 39.2999 21.9995 39.2999C26.6678 39.2999 27.2518 39.2794 29.085 39.1961C30.9148 39.1122 32.1652 38.8226 33.2588 38.3976C34.3889 37.9586 35.3464 37.3699 36.3014 36.4138C37.2575 35.4585 37.8446 34.4996 38.2852 33.3695C38.7076 32.2762 38.9977 31.0269 39.0837 29.1978C39.166 27.3646 39.1875 26.7802 39.1875 22.1122C39.1875 17.4443 39.166 16.8585 39.0837 15.0251C38.9977 13.1954 38.7076 11.9465 38.2852 10.8537C37.8446 9.72314 37.2575 8.76425 36.3014 7.80879C35.3454 6.85283 34.3893 6.26553 33.2578 5.82708C32.1621 5.40186 30.9124 5.11208 29.0826 5.02837C27.2492 4.94501 26.6655 4.92456 21.9962 4.92456H22.0015ZM20.4597 8.02192C20.9174 8.02123 21.428 8.02192 22.0015 8.02192C26.5908 8.02192 27.1346 8.03842 28.9468 8.12075C30.6226 8.1974 31.5322 8.47739 32.138 8.71269C32.9402 9.02412 33.512 9.39658 34.1132 9.99831C34.7148 10.5999 35.0871 11.1727 35.3994 11.9749C35.6347 12.5799 35.915 13.4894 35.9913 15.1652C36.0736 16.9771 36.0915 17.5213 36.0915 22.1083C36.0915 26.6953 36.0736 27.2396 35.9913 29.0513C35.9147 30.7271 35.6347 31.6367 35.3994 32.2419C35.0879 33.044 34.7148 33.6151 34.1132 34.2164C33.5117 34.8179 32.9405 35.1902 32.138 35.5018C31.5329 35.7381 30.6226 36.0174 28.9468 36.0941C27.1349 36.1764 26.5908 36.1943 22.0015 36.1943C17.4121 36.1943 16.8682 36.1764 15.0564 36.0941C13.3806 36.0167 12.4711 35.7368 11.8647 35.5015C11.0627 35.1899 10.4897 34.8176 9.88814 34.216C9.28658 33.6145 8.9143 33.043 8.602 32.2405C8.3667 31.6353 8.08638 30.7257 8.01006 29.05C7.92773 27.2381 7.91123 26.6939 7.91123 22.104C7.91123 17.5142 7.92773 16.9728 8.01006 15.1609C8.08672 13.4851 8.3667 12.5756 8.602 11.9697C8.91361 11.1676 9.28658 10.5947 9.88831 9.99315C10.4899 9.39159 11.0627 9.01914 11.8649 8.70701C12.4707 8.47069 13.3806 8.19139 15.0564 8.11439C16.642 8.04272 17.2564 8.02123 20.4597 8.01762V8.02192ZM31.1762 10.8757C30.0376 10.8757 29.1137 11.7987 29.1137 12.9375C29.1137 14.0762 30.0376 15 31.1762 15C32.3149 15 33.2387 14.0762 33.2387 12.9375C33.2387 11.7989 32.3149 10.875 31.1762 10.875V10.8757ZM22.0015 13.2856C17.1272 13.2856 13.1751 17.2377 13.1751 22.1122C13.1751 26.9868 17.1272 30.937 22.0015 30.937C26.8761 30.937 30.8268 26.9868 30.8268 22.1122C30.8268 17.2379 26.8761 13.2856 22.0015 13.2856ZM22.0015 16.383C25.1656 16.383 27.7308 18.9478 27.7308 22.1122C27.7308 25.2763 25.1656 27.8415 22.0015 27.8415C18.8373 27.8415 16.2724 25.2763 16.2724 22.1122C16.2724 18.9478 18.8373 16.383 22.0015 16.383Z" fill="white"/>
<defs>
<radialGradient id="paint0_radial_253_938" cx="0" cy="0" r="1" gradientUnits="userSpaceOnUse" gradientTransform="translate(11.6875 47.5009) rotate(-90) scale(43.6073 40.5582)">
<stop stop-color="#FFDD55"/>
<stop offset="0.1" stop-color="#FFDD55"/>
<stop offset="0.5" stop-color="#FF543E"/>
<stop offset="1" stop-color="#C837AB"/>
</radialGradient>
<radialGradient id="paint1_radial_253_938" cx="0" cy="0" r="1" gradientUnits="userSpaceOnUse" gradientTransform="translate(-7.37017 3.28161) rotate(78.681) scale(19.4927 80.3495)">
<stop stop-color="#3771C8"/>
<stop offset="0.128" stop-color="#3771C8"/>
<stop offset="1" stop-color="#6600FF" stop-opacity="0"/>
</radialGradient>
</defs>
</svg>
