<svg width="50" height="51" viewBox="0 0 50 51" fill="none" xmlns="http://www.w3.org/2000/svg">
<path d="M1.06699 24.8937C1.06582 29.1275 2.17207 33.2615 4.27559 36.9053L0.86582 49.3549L13.6064 46.0143C17.1303 47.9326 21.0786 48.9378 25.0908 48.9381H25.1014C38.3465 48.9381 49.1283 38.1602 49.134 24.9127C49.1365 18.4934 46.6389 12.457 42.101 7.91563C37.5639 3.37461 31.5297 0.872461 25.1004 0.869531C11.8537 0.869531 1.07246 11.6469 1.06699 24.8937Z" fill="url(#paint0_linear_253_934)"/>
<path d="M0.208984 24.8859C0.207617 29.2721 1.35352 33.5539 3.53203 37.3281L0 50.224L13.1975 46.7637C16.8338 48.7463 20.9279 49.7916 25.0939 49.7932H25.1047C38.825 49.7932 49.9941 38.6275 50 24.9059C50.0023 18.2559 47.4148 12.0025 42.7148 7.29844C38.0143 2.59492 31.7643 0.00273438 25.1047 0C11.382 0 0.214453 11.1641 0.208984 24.8859ZM8.06836 36.6781L7.57559 35.8959C5.5041 32.6021 4.41074 28.7959 4.4123 24.8875C4.4168 13.4822 13.6988 4.20312 25.1125 4.20312C30.6398 4.20547 35.8344 6.36016 39.7414 10.2695C43.6482 14.1793 45.798 19.3766 45.7967 24.9043C45.7916 36.3096 36.5094 45.5898 25.1047 45.5898H25.0965C21.383 45.5879 17.741 44.5906 14.5648 42.7061L13.809 42.2578L5.97734 44.3111L8.06836 36.6781Z" fill="url(#paint1_linear_253_934)"/>
<path d="M18.8824 14.482C18.4164 13.4463 17.926 13.4254 17.4828 13.4072C17.1199 13.3916 16.7051 13.3928 16.2906 13.3928C15.8758 13.3928 15.2018 13.5488 14.632 14.1709C14.0617 14.7936 12.4547 16.2982 12.4547 19.3586C12.4547 22.4191 14.6838 25.3768 14.9945 25.7922C15.3057 26.2068 19.2979 32.6881 25.6205 35.1814C30.8752 37.2535 31.9445 36.8414 33.085 36.7375C34.2256 36.634 36.7654 35.2332 37.2836 33.7807C37.8021 32.3283 37.8021 31.0834 37.6467 30.8232C37.4912 30.5641 37.0764 30.4084 36.4543 30.0975C35.832 29.7863 32.7738 28.2814 32.2037 28.0738C31.6334 27.8664 31.2188 27.7629 30.8039 28.3857C30.3891 29.0076 29.1979 30.4084 28.8348 30.8232C28.4721 31.2391 28.109 31.2908 27.4871 30.9797C26.8646 30.6676 24.8613 30.0115 22.4846 27.8926C20.6354 26.2437 19.3869 24.2076 19.024 23.5848C18.6611 22.9629 18.9852 22.6258 19.2971 22.3158C19.5766 22.0371 19.9193 21.5895 20.2307 21.2264C20.5408 20.8631 20.6443 20.6039 20.8518 20.1891C21.0594 19.7738 20.9555 19.4105 20.8002 19.0994C20.6443 18.7883 19.4355 15.7119 18.8824 14.482Z" fill="white"/>
<defs>
<linearGradient id="paint0_linear_253_934" x1="2500" y1="5022.4" x2="2500" y2="0" gradientUnits="userSpaceOnUse">
<stop stop-color="#1FAF38"/>
<stop offset="1" stop-color="#60D669"/>
</linearGradient>
<linearGradient id="paint1_linear_253_934" x1="2500" y1="5022.4" x2="2500" y2="0" gradientUnits="userSpaceOnUse">
<stop stop-color="#F9F9F9"/>
<stop offset="1" stop-color="white"/>
</linearGradient>
</defs>
</svg>
